<mxfile host="app.diagrams.net" modified="2021-04-03T03:42:03.917Z" agent="5.0 (Macintosh; Intel Mac OS X 11_2_2) AppleWebKit/537.36 (KHTML, like Gecko) Chrome/89.0.4389.90 Safari/537.36" etag="BRoA0Y7sJ3rMOWX9JHe0" version="14.5.3" type="github">
  <diagram name="总架构" id="c7558073-3199-34d8-9f00-42111426c3f3">
    <mxGraphModel dx="1158" dy="1816" grid="1" gridSize="10" guides="1" tooltips="1" connect="1" arrows="1" fold="1" page="1" pageScale="1" pageWidth="826" pageHeight="1169" background="#CCCCCC" math="0" shadow="0">
      <root>
        <mxCell id="0" />
        <mxCell id="1" parent="0" />
        <mxCell id="N5zD_Ya7gM_0thHT2puo-96" value="" style="endArrow=none;html=1;fontSize=7;" parent="1" edge="1">
          <mxGeometry width="50" height="50" relative="1" as="geometry">
            <mxPoint x="413" y="-1130" as="sourcePoint" />
            <mxPoint x="1243" y="-1130" as="targetPoint" />
          </mxGeometry>
        </mxCell>
        <mxCell id="N5zD_Ya7gM_0thHT2puo-97" value="Class" style="whiteSpace=wrap;align=center;verticalAlign=middle;fontStyle=1;strokeWidth=3;fillColor=#3399FF;strokeColor=none;fontSize=7;" parent="1" vertex="1">
          <mxGeometry x="529" y="-1100" width="90" height="30" as="geometry" />
        </mxCell>
        <mxCell id="N5zD_Ya7gM_0thHT2puo-99" value="Interface" style="whiteSpace=wrap;align=center;verticalAlign=middle;fontStyle=1;strokeWidth=3;fillColor=#00CC00;strokeColor=none;fontSize=7;" parent="1" vertex="1">
          <mxGeometry x="659" y="-1100" width="90" height="30" as="geometry" />
        </mxCell>
        <mxCell id="N5zD_Ya7gM_0thHT2puo-105" value="" style="edgeStyle=elbowEdgeStyle;elbow=vertical;strokeColor=#990000;strokeWidth=2;fontSize=7;" parent="1" edge="1">
          <mxGeometry width="100" height="100" relative="1" as="geometry">
            <mxPoint x="789" y="-1085.5" as="sourcePoint" />
            <mxPoint x="859" y="-1085.5" as="targetPoint" />
            <Array as="points">
              <mxPoint x="809" y="-1085.5" />
            </Array>
          </mxGeometry>
        </mxCell>
        <mxCell id="N5zD_Ya7gM_0thHT2puo-107" value="Call" style="edgeLabel;html=1;align=center;verticalAlign=middle;resizable=0;points=[];fontSize=7;" parent="N5zD_Ya7gM_0thHT2puo-105" vertex="1" connectable="0">
          <mxGeometry x="-0.0571" y="3" relative="1" as="geometry">
            <mxPoint y="1" as="offset" />
          </mxGeometry>
        </mxCell>
        <mxCell id="N5zD_Ya7gM_0thHT2puo-106" value="" style="edgeStyle=elbowEdgeStyle;elbow=vertical;strokeWidth=2;strokeColor=#9933FF;endArrow=block;endFill=1;fontSize=7;" parent="1" edge="1">
          <mxGeometry width="100" height="100" relative="1" as="geometry">
            <mxPoint x="892" y="-1085.5" as="sourcePoint" />
            <mxPoint x="962" y="-1085.5" as="targetPoint" />
            <Array as="points">
              <mxPoint x="912" y="-1085.5" />
            </Array>
          </mxGeometry>
        </mxCell>
        <mxCell id="N5zD_Ya7gM_0thHT2puo-108" value="Inherit" style="edgeLabel;html=1;align=center;verticalAlign=middle;resizable=0;points=[];fontSize=7;" parent="N5zD_Ya7gM_0thHT2puo-106" vertex="1" connectable="0">
          <mxGeometry x="-0.1" y="1" relative="1" as="geometry">
            <mxPoint y="1" as="offset" />
          </mxGeometry>
        </mxCell>
        <mxCell id="N5zD_Ya7gM_0thHT2puo-109" value="" style="edgeStyle=elbowEdgeStyle;elbow=vertical;strokeWidth=2;endArrow=classic;endFill=1;dashed=1;strokeColor=#3399FF;fontSize=7;" parent="1" edge="1">
          <mxGeometry width="100" height="100" relative="1" as="geometry">
            <mxPoint x="1004" y="-1085.5" as="sourcePoint" />
            <mxPoint x="1074" y="-1085.5" as="targetPoint" />
            <Array as="points">
              <mxPoint x="1024" y="-1085.5" />
            </Array>
          </mxGeometry>
        </mxCell>
        <mxCell id="N5zD_Ya7gM_0thHT2puo-110" value="Init" style="edgeLabel;html=1;align=center;verticalAlign=middle;resizable=0;points=[];fontSize=7;" parent="N5zD_Ya7gM_0thHT2puo-109" vertex="1" connectable="0">
          <mxGeometry x="-0.1" y="1" relative="1" as="geometry">
            <mxPoint y="1" as="offset" />
          </mxGeometry>
        </mxCell>
        <mxCell id="N5zD_Ya7gM_0thHT2puo-111" value="" style="edgeStyle=elbowEdgeStyle;elbow=vertical;strokeWidth=2;fontSize=7;" parent="1" edge="1">
          <mxGeometry width="100" height="100" relative="1" as="geometry">
            <mxPoint x="1119" y="-1085.5" as="sourcePoint" />
            <mxPoint x="1189" y="-1085.5" as="targetPoint" />
            <Array as="points">
              <mxPoint x="1139" y="-1085.5" />
            </Array>
          </mxGeometry>
        </mxCell>
        <mxCell id="N5zD_Ya7gM_0thHT2puo-112" value="Depend" style="edgeLabel;html=1;align=center;verticalAlign=middle;resizable=0;points=[];fontSize=7;" parent="N5zD_Ya7gM_0thHT2puo-111" vertex="1" connectable="0">
          <mxGeometry x="-0.0571" y="3" relative="1" as="geometry">
            <mxPoint y="1" as="offset" />
          </mxGeometry>
        </mxCell>
        <mxCell id="N5zD_Ya7gM_0thHT2puo-113" value="Start" style="ellipse;html=1;shape=startState;strokeColor=none;fillColor=#FF9933;fontSize=7;" parent="1" vertex="1">
          <mxGeometry x="459" y="-1100" width="30" height="30" as="geometry" />
        </mxCell>
        <mxCell id="rh-nD5U5f6pO784vrPoQ-6" style="edgeStyle=orthogonalEdgeStyle;rounded=0;orthogonalLoop=1;jettySize=auto;html=1;fontSize=7;strokeColor=#990000;" edge="1" parent="1" source="N5zD_Ya7gM_0thHT2puo-115" target="rh-nD5U5f6pO784vrPoQ-5">
          <mxGeometry relative="1" as="geometry" />
        </mxCell>
        <mxCell id="N5zD_Ya7gM_0thHT2puo-115" value="Start" style="ellipse;html=1;shape=startState;strokeColor=none;fillColor=#FF9933;fontSize=7;" parent="1" vertex="1">
          <mxGeometry x="810" y="-1050" width="30" height="30" as="geometry" />
        </mxCell>
        <mxCell id="rh-nD5U5f6pO784vrPoQ-8" value="" style="edgeStyle=orthogonalEdgeStyle;rounded=0;orthogonalLoop=1;jettySize=auto;html=1;fontSize=7;strokeColor=#990000;" edge="1" parent="1" source="rh-nD5U5f6pO784vrPoQ-5" target="rh-nD5U5f6pO784vrPoQ-7">
          <mxGeometry relative="1" as="geometry" />
        </mxCell>
        <mxCell id="rh-nD5U5f6pO784vrPoQ-5" value="ProcessEngineAutoConfiguration" style="whiteSpace=wrap;align=center;verticalAlign=middle;fontStyle=1;strokeWidth=3;fillColor=#3399FF;strokeColor=none;fontSize=7;" vertex="1" parent="1">
          <mxGeometry x="720" y="-990" width="210" height="30" as="geometry" />
        </mxCell>
        <mxCell id="rh-nD5U5f6pO784vrPoQ-10" value="" style="edgeStyle=orthogonalEdgeStyle;rounded=0;orthogonalLoop=1;jettySize=auto;html=1;fontSize=7;fontColor=#000000;strokeColor=#990000;" edge="1" parent="1" source="rh-nD5U5f6pO784vrPoQ-7" target="rh-nD5U5f6pO784vrPoQ-11">
          <mxGeometry relative="1" as="geometry">
            <mxPoint x="825" y="-870" as="targetPoint" />
          </mxGeometry>
        </mxCell>
        <mxCell id="rh-nD5U5f6pO784vrPoQ-7" value="SpringProcessEngineConfiguration" style="whiteSpace=wrap;align=center;verticalAlign=middle;fontStyle=1;strokeWidth=3;fillColor=#3399FF;strokeColor=none;fontSize=7;" vertex="1" parent="1">
          <mxGeometry x="720" y="-930" width="210" height="30" as="geometry" />
        </mxCell>
        <mxCell id="rh-nD5U5f6pO784vrPoQ-14" value="" style="edgeStyle=orthogonalEdgeStyle;rounded=0;orthogonalLoop=1;jettySize=auto;html=1;fontSize=7;fontColor=#000000;strokeColor=#990000;" edge="1" parent="1" source="rh-nD5U5f6pO784vrPoQ-11" target="rh-nD5U5f6pO784vrPoQ-13">
          <mxGeometry relative="1" as="geometry" />
        </mxCell>
        <mxCell id="rh-nD5U5f6pO784vrPoQ-11" value="&lt;font face=&quot;Fira Code Medium&quot; style=&quot;font-size: 7px&quot;&gt;&lt;font size=&quot;1&quot; style=&quot;font-size: 7px&quot;&gt;conf.setXxx 配置赋值&lt;/font&gt;&lt;br&gt;&lt;font style=&quot;font-size: 7px&quot;&gt;（&lt;/font&gt;&lt;/font&gt;&lt;font style=&quot;font-size: 7px&quot;&gt;&lt;span style=&quot;font-family: &amp;quot;fira code medium&amp;quot;; font-size: 7px;&quot;&gt;EnableConfigurationProperties&lt;/span&gt;&lt;span style=&quot;font-family: &amp;quot;fira code medium&amp;quot; ; font-size: 7px&quot;&gt;）&lt;/span&gt;&lt;/font&gt;" style="text;html=1;fillColor=none;align=center;verticalAlign=middle;whiteSpace=wrap;rounded=0;labelBackgroundColor=#ffffff;strokeColor=#000000;" vertex="1" parent="1">
          <mxGeometry x="720" y="-870" width="210" height="30" as="geometry" />
        </mxCell>
        <mxCell id="rh-nD5U5f6pO784vrPoQ-16" value="" style="edgeStyle=orthogonalEdgeStyle;rounded=0;orthogonalLoop=1;jettySize=auto;html=1;fontSize=7;fontColor=#000000;strokeColor=#990000;" edge="1" parent="1" source="rh-nD5U5f6pO784vrPoQ-13" target="rh-nD5U5f6pO784vrPoQ-15">
          <mxGeometry relative="1" as="geometry" />
        </mxCell>
        <mxCell id="rh-nD5U5f6pO784vrPoQ-13" value="&lt;font face=&quot;Fira Code Medium&quot;&gt;&lt;span style=&quot;font-size: 7px&quot;&gt;实例化@Bean注解的Bean&lt;/span&gt;&lt;/font&gt;" style="text;html=1;fillColor=none;align=center;verticalAlign=middle;whiteSpace=wrap;rounded=0;labelBackgroundColor=#ffffff;strokeColor=#000000;" vertex="1" parent="1">
          <mxGeometry x="720" y="-810" width="210" height="30" as="geometry" />
        </mxCell>
        <mxCell id="rh-nD5U5f6pO784vrPoQ-20" value="" style="edgeStyle=orthogonalEdgeStyle;rounded=0;orthogonalLoop=1;jettySize=auto;html=1;fontSize=7;fontColor=#000000;strokeColor=#990000;" edge="1" parent="1" source="rh-nD5U5f6pO784vrPoQ-15" target="rh-nD5U5f6pO784vrPoQ-19">
          <mxGeometry relative="1" as="geometry" />
        </mxCell>
        <mxCell id="rh-nD5U5f6pO784vrPoQ-25" value="&lt;span style=&quot;font-weight: 700 ; background-color: rgb(248 , 249 , 250)&quot;&gt;调用&lt;/span&gt;" style="edgeLabel;html=1;align=center;verticalAlign=middle;resizable=0;points=[];fontSize=7;fontColor=#000000;" vertex="1" connectable="0" parent="rh-nD5U5f6pO784vrPoQ-20">
          <mxGeometry x="-0.402" y="1" relative="1" as="geometry">
            <mxPoint y="2" as="offset" />
          </mxGeometry>
        </mxCell>
        <mxCell id="rh-nD5U5f6pO784vrPoQ-15" value="&lt;font style=&quot;font-size: 7px&quot;&gt;&lt;font face=&quot;Fira Code Medium&quot; style=&quot;font-size: 7px&quot;&gt;DefaultListableBeanFactory &lt;br style=&quot;font-size: 7px&quot;&gt;创建&lt;/font&gt;&lt;span style=&quot;background-color: transparent ; font-family: &amp;#34;consolas&amp;#34; , &amp;#34;liberation mono&amp;#34; , &amp;#34;menlo&amp;#34; , &amp;#34;courier&amp;#34; , monospace ; color: rgb(51 , 51 , 51) ; font-size: 7px&quot;&gt;ProcessEngineFactoryBean&lt;/span&gt;&lt;/font&gt;" style="text;html=1;fillColor=none;align=center;verticalAlign=middle;whiteSpace=wrap;rounded=0;labelBackgroundColor=#ffffff;strokeColor=#000000;" vertex="1" parent="1">
          <mxGeometry x="720" y="-750" width="210" height="30" as="geometry" />
        </mxCell>
        <mxCell id="rh-nD5U5f6pO784vrPoQ-22" value="&lt;span style=&quot;font-weight: 700 ; background-color: rgb(248 , 249 , 250)&quot;&gt;调用&lt;/span&gt;" style="edgeStyle=orthogonalEdgeStyle;rounded=0;orthogonalLoop=1;jettySize=auto;html=1;fontSize=7;fontColor=#000000;strokeColor=#990000;" edge="1" parent="1" source="rh-nD5U5f6pO784vrPoQ-19" target="rh-nD5U5f6pO784vrPoQ-21">
          <mxGeometry relative="1" as="geometry" />
        </mxCell>
        <mxCell id="rh-nD5U5f6pO784vrPoQ-19" value="FactoryBeanRegistrySupport&#xa;.getObjectFromFactoryBean" style="whiteSpace=wrap;align=center;verticalAlign=middle;fontStyle=1;strokeWidth=3;fillColor=#3399FF;strokeColor=none;fontSize=7;" vertex="1" parent="1">
          <mxGeometry x="720" y="-690" width="210" height="30" as="geometry" />
        </mxCell>
        <mxCell id="rh-nD5U5f6pO784vrPoQ-24" value="" style="edgeStyle=orthogonalEdgeStyle;rounded=0;orthogonalLoop=1;jettySize=auto;html=1;fontSize=7;fontColor=#000000;strokeColor=#990000;" edge="1" parent="1" source="rh-nD5U5f6pO784vrPoQ-21" target="rh-nD5U5f6pO784vrPoQ-23">
          <mxGeometry relative="1" as="geometry" />
        </mxCell>
        <mxCell id="rh-nD5U5f6pO784vrPoQ-26" value="调用" style="edgeLabel;html=1;align=center;verticalAlign=middle;resizable=0;points=[];fontSize=7;fontColor=#000000;" vertex="1" connectable="0" parent="rh-nD5U5f6pO784vrPoQ-24">
          <mxGeometry x="-0.4" y="-1" relative="1" as="geometry">
            <mxPoint as="offset" />
          </mxGeometry>
        </mxCell>
        <mxCell id="rh-nD5U5f6pO784vrPoQ-21" value="ProcessEngineFactoryBean&#xa;.getObject方法获取ProcessEngine" style="whiteSpace=wrap;align=center;verticalAlign=middle;fontStyle=1;strokeWidth=3;fillColor=#3399FF;strokeColor=none;fontSize=7;" vertex="1" parent="1">
          <mxGeometry x="720" y="-630" width="210" height="30" as="geometry" />
        </mxCell>
        <mxCell id="rh-nD5U5f6pO784vrPoQ-23" value="SpringProcessEngineConfiguration&#xa;.buildProcessEngine" style="whiteSpace=wrap;align=center;verticalAlign=middle;fontStyle=1;strokeWidth=3;fillColor=#3399FF;strokeColor=none;fontSize=7;" vertex="1" parent="1">
          <mxGeometry x="720" y="-570" width="210" height="30" as="geometry" />
        </mxCell>
        <mxCell id="rh-nD5U5f6pO784vrPoQ-29" value="" style="edgeStyle=elbowEdgeStyle;elbow=vertical;strokeWidth=2;endArrow=classic;endFill=1;dashed=1;strokeColor=#3399FF;fontSize=7;exitX=0.5;exitY=1;exitDx=0;exitDy=0;entryX=0.5;entryY=0;entryDx=0;entryDy=0;" edge="1" parent="1" source="rh-nD5U5f6pO784vrPoQ-27" target="rh-nD5U5f6pO784vrPoQ-27">
          <mxGeometry width="100" height="100" relative="1" as="geometry">
            <mxPoint x="790" y="-500" as="sourcePoint" />
            <mxPoint x="950" y="-520" as="targetPoint" />
            <Array as="points">
              <mxPoint x="810" y="-500" />
            </Array>
          </mxGeometry>
        </mxCell>
        <mxCell id="rh-nD5U5f6pO784vrPoQ-30" value="Init" style="edgeLabel;html=1;align=center;verticalAlign=middle;resizable=0;points=[];fontSize=7;" vertex="1" connectable="0" parent="rh-nD5U5f6pO784vrPoQ-29">
          <mxGeometry x="-0.1" y="1" relative="1" as="geometry">
            <mxPoint y="1" as="offset" />
          </mxGeometry>
        </mxCell>
        <mxCell id="rh-nD5U5f6pO784vrPoQ-37" value="" style="edgeStyle=orthogonalEdgeStyle;rounded=0;orthogonalLoop=1;jettySize=auto;html=1;strokeColor=#990000;fontSize=7;fontColor=#000000;" edge="1" parent="1" source="rh-nD5U5f6pO784vrPoQ-27" target="rh-nD5U5f6pO784vrPoQ-36">
          <mxGeometry relative="1" as="geometry" />
        </mxCell>
        <mxCell id="rh-nD5U5f6pO784vrPoQ-38" value="创建ProcessEngineImpl" style="edgeLabel;html=1;align=center;verticalAlign=middle;resizable=0;points=[];fontSize=7;fontColor=#000000;" vertex="1" connectable="0" parent="rh-nD5U5f6pO784vrPoQ-37">
          <mxGeometry x="-0.35" y="-3" relative="1" as="geometry">
            <mxPoint as="offset" />
          </mxGeometry>
        </mxCell>
        <mxCell id="rh-nD5U5f6pO784vrPoQ-27" value="ProcessEngineConfigurationImpl&#xa;.init() 初始化：服务、Agenda工厂、执行器、服务、ID生成器、异步执行器&#xa;DB session工厂、监听器工厂等" style="whiteSpace=wrap;align=center;verticalAlign=middle;fontStyle=1;strokeWidth=3;fillColor=#3399FF;strokeColor=none;fontSize=7;" vertex="1" parent="1">
          <mxGeometry x="720" y="-510" width="210" height="60" as="geometry" />
        </mxCell>
        <mxCell id="rh-nD5U5f6pO784vrPoQ-32" value="" style="edgeStyle=elbowEdgeStyle;elbow=vertical;strokeWidth=2;endArrow=classic;endFill=1;dashed=1;strokeColor=#3399FF;fontSize=7;exitX=0.5;exitY=1;exitDx=0;exitDy=0;" edge="1" parent="1" source="rh-nD5U5f6pO784vrPoQ-23" target="rh-nD5U5f6pO784vrPoQ-27">
          <mxGeometry width="100" height="100" relative="1" as="geometry">
            <mxPoint x="825" y="-540" as="sourcePoint" />
            <mxPoint x="950" y="-520" as="targetPoint" />
            <Array as="points" />
          </mxGeometry>
        </mxCell>
        <mxCell id="rh-nD5U5f6pO784vrPoQ-33" value="Init引擎必要工厂/实例" style="edgeLabel;html=1;align=center;verticalAlign=middle;resizable=0;points=[];fontSize=7;" vertex="1" connectable="0" parent="rh-nD5U5f6pO784vrPoQ-32">
          <mxGeometry x="-0.1" y="1" relative="1" as="geometry">
            <mxPoint y="1" as="offset" />
          </mxGeometry>
        </mxCell>
        <mxCell id="rh-nD5U5f6pO784vrPoQ-36" value="1. xxxService、Session工厂赋值&#xa;2. 注册ProcessEngine并分发事件 " style="whiteSpace=wrap;align=center;verticalAlign=middle;fontStyle=1;strokeWidth=3;fillColor=#3399FF;strokeColor=none;fontSize=7;" vertex="1" parent="1">
          <mxGeometry x="720" y="-420" width="210" height="30" as="geometry" />
        </mxCell>
      </root>
    </mxGraphModel>
  </diagram>
</mxfile>
